<svg width="31" height="32" viewBox="0 0 31 32" fill="none" xmlns="http://www.w3.org/2000/svg">
<g clip-path="url(#clip0_210_7)">
<path d="M0 18.3333C0 25.8813 6.18517 32 13.8152 32C21.4453 32 27.6304 25.8813 27.6304 18.3333C27.546 15.7603 26.8384 13.2449 25.5669 10.9987L25.6087 11.08C24.9238 10.1969 24.5537 9.11439 24.556 8.00133C24.556 5.668 27.0441 3.33333 29.6508 3.33333H29.9837C30.4189 3.31646 30.8306 3.13366 31.1326 2.82322C31.4346 2.51278 31.6035 2.09879 31.6038 1.66795C31.6042 1.23711 31.436 0.822849 31.1345 0.511932C30.833 0.201016 30.4216 0.0175642 29.9864 0L29.6468 0C25.5022 0 21.9561 2.18667 21.115 6.66667C18.9468 5.25097 16.3808 4.55127 13.7856 4.668L13.8112 4.66667C6.18383 4.67067 0.00269565 10.7867 0.00134783 18.332L0 18.3333ZM12.1304 18.3333C12.1307 18.0038 12.2297 17.6817 12.415 17.4077C12.6003 17.1338 12.8635 16.9204 13.1714 16.7945C13.4793 16.6685 13.818 16.6357 14.1447 16.7002C14.4715 16.7646 14.7715 16.9235 15.007 17.1566C15.2425 17.3898 15.4028 17.6867 15.4677 18.01C15.5326 18.3333 15.4992 18.6683 15.3716 18.9728C15.2441 19.2772 15.0281 19.5375 14.7511 19.7205C14.4741 19.9036 14.1484 20.0013 13.8152 20.0013H13.8112C13.3653 19.9999 12.9381 19.8237 12.6233 19.5113C12.3085 19.1989 12.1318 18.7758 12.1318 18.3347L12.1304 18.3333ZM3.36957 18.3333C3.3701 17.5389 3.68956 16.7772 4.25768 16.2158C4.82581 15.6543 5.59609 15.3391 6.39914 15.3393C7.20219 15.3396 7.97226 15.6554 8.54001 16.2172C9.10775 16.779 9.4267 17.5409 9.4267 18.3353C9.4267 19.1297 9.10775 19.8916 8.54001 20.4535C7.97226 21.0153 7.20219 21.3311 6.39914 21.3313C5.59609 21.3316 4.82581 21.0163 4.25768 20.4549C3.68956 19.8934 3.3701 19.1317 3.36957 18.3373V18.3333ZM18.1957 18.3333C18.1962 17.5389 18.5156 16.7772 19.0838 16.2158C19.6519 15.6543 20.4222 15.3391 21.2252 15.3393C22.0283 15.3396 22.7983 15.6554 23.3661 16.2172C23.9338 16.779 24.2528 17.5409 24.2528 18.3353C24.2528 19.1297 23.9338 19.8916 23.3661 20.4535C22.7983 21.0153 22.0283 21.3311 21.2252 21.3313C20.4222 21.3316 19.6519 21.0163 19.0838 20.4549C18.5156 19.8934 18.1962 19.1317 18.1957 18.3373V18.3333ZM10.7826 25.6667C10.7826 25.0733 10.9605 24.4933 11.2937 24C11.6269 23.5066 12.1006 23.1221 12.6547 22.895C13.2088 22.668 13.8186 22.6086 14.4069 22.7243C14.9951 22.8401 15.5355 23.1258 15.9596 23.5453C16.3837 23.9649 16.6725 24.4995 16.7896 25.0814C16.9066 25.6633 16.8465 26.2665 16.617 26.8147C16.3875 27.3629 15.9988 27.8314 15.5 28.1611C15.0013 28.4907 14.415 28.6667 13.8152 28.6667H13.8098C13.0065 28.6653 12.2365 28.3486 11.6689 27.7861C11.1014 27.2236 10.7826 26.4614 10.7826 25.6667ZM10.7826 11C10.7828 10.6066 10.8613 10.217 11.0137 9.85358C11.166 9.49016 11.3893 9.15998 11.6706 8.8819C11.952 8.60382 12.2859 8.38328 12.6534 8.23288C13.0209 8.08248 13.4148 8.00516 13.8125 8.00533C14.2102 8.00551 14.604 8.08318 14.9714 8.2339C15.3388 8.38463 15.6725 8.60546 15.9536 8.88378C16.2348 9.16211 16.4577 9.49249 16.6097 9.85605C16.7618 10.2196 16.8399 10.6092 16.8397 11.0027C16.8397 11.7973 16.5207 12.5593 15.9527 13.1212C15.3847 13.683 14.6144 13.9987 13.8112 13.9987C13.0079 13.9987 12.2376 13.683 11.6697 13.1212C11.1017 12.5593 10.7826 11.7973 10.7826 11.0027V11Z" fill="#0B0B0B"/>
</g>
<defs>
<clipPath id="clip0_210_7">
<rect width="31" height="32" fill="white"/>
</clipPath>
</defs>
</svg>
